<svg viewBox="0 0 40 40" fill="none" xmlns="http://www.w3.org/2000/svg">
  <!-- Rounded square frame (common in adult sites) -->
  <rect x="2" y="2" width="36" height="36" rx="8" stroke="currentColor" stroke-width="1.5" fill="none"/>
  
  <!-- Stylized play button with curves -->
  <path 
    d="M14 10 C14 10, 14 30, 14 30 C14 30, 30 20, 30 20 C30 20, 14 10, 14 10 Z" 
    fill="currentColor"
  />
  
  <!-- Accent curves suggesting sensuality -->
  <path 
    d="M8 12 Q12 8, 16 8" 
    stroke="currentColor" 
    stroke-width="1" 
    opacity="0.4"
    fill="none"
  />
  <path 
    d="M24 32 Q28 32, 32 28" 
    stroke="currentColor" 
    stroke-width="1" 
    opacity="0.4"
    fill="none"
  />
  
  <!-- Small heart accent (common in JAV branding) -->
  <path 
    d="M34 8 C34 8, 35 6, 36 7 C37 8, 36 9, 35 10 C34 11, 33 10, 33 9 C33 8, 34 7, 34 8 Z" 
    fill="currentColor"
    opacity="0.5"
  />
</svg>
