<svg viewBox="0 0 40 40" fill="none" xmlns="http://www.w3.org/2000/svg">
  <!-- Fully filled hentai woman silhouette - no outlines -->
  
  <!-- Head with long hair -->
  <ellipse cx="20" cy="10" rx="4.5" ry="5" fill="currentColor"/>
  <path d="M15.5 9 Q13 8, 12 11 Q11 14, 13 16 Q14 17, 15.5 16 Z" fill="currentColor"/>
  <path d="M24.5 9 Q27 8, 28 11 Q29 14, 27 16 Q26 17, 24.5 16 Z" fill="currentColor"/>
  
  <!-- Neck -->
  <rect x="17.5" y="14" width="5" height="3" rx="1" fill="currentColor"/>
  
  <!-- Upper body with breasts -->
  <ellipse cx="17" cy="21" rx="3.5" ry="4" fill="currentColor"/>
  <ellipse cx="23" cy="21" rx="3.5" ry="4" fill="currentColor"/>
  <rect x="16" y="17" width="8" height="8" fill="currentColor"/>
  
  <!-- Waist -->
  <ellipse cx="20" cy="26" rx="3" ry="2" fill="currentColor"/>
  
  <!-- Hips and thighs -->
  <ellipse cx="20" cy="30" rx="6" ry="4" fill="currentColor"/>
  
  <!-- Legs -->
  <rect x="16" y="30" width="3" height="8" rx="1.5" fill="currentColor"/>
  <rect x="21" y="30" width="3" height="8" rx="1.5" fill="currentColor"/>
  
  <!-- Arms -->
  <ellipse cx="12" cy="22" rx="2" ry="5" fill="currentColor" transform="rotate(-20 12 22)"/>
  <ellipse cx="28" cy="22" rx="2" ry="5" fill="currentColor" transform="rotate(20 28 22)"/>
  
  <!-- Hands -->
  <circle cx="10" cy="27" r="2" fill="currentColor"/>
  <circle cx="30" cy="27" r="2" fill="currentColor"/>
  
  <!-- Play button -->
  <circle cx="20" cy="35" r="3.5" fill="currentColor" opacity="0.9"/>
  <path d="M18.5 33 L18.5 37 L22.5 35 Z" fill="white"/>
</svg>
